<svg height="512" viewBox="0 0 64 64" width="512" xmlns="http://www.w3.org/2000/svg"><g fill="#78b9eb"><path d="m41 57v4h-18v-4h5 8z"/><path d="m28 52h8v5h-8z"/><path d="m61 35.17v10.83h-24a4 4 0 0 1 4-4 3.954 3.954 0 0 1 2.59.98 7.981 7.981 0 0 1 10.73-4.25 12.013 12.013 0 0 1 6.68-3.56z"/><path d="m26 45v1h-23v-12a11.94 11.94 0 0 1 8.7 3.75 4 4 0 0 1 7.3 2.25c0 .15-.03.3-.04.45a4.8 4.8 0 0 1 2.04-.45 5 5 0 0 1 5 5z"/><path d="m34 30 1 3h-6l1-3z"/><path d="m44 27.52v.48h-7v-12l2.81 2.41a12 12 0 0 1 4.19 9.11z"/><path d="m27 26v2h-7v-.03a11.989 11.989 0 0 1 3.51-8.48l3.49-3.49z"/><path d="m34 18a2 2 0 1 0 -2 2 2.006 2.006 0 0 0 2-2zm3-2v10h-10v-12.8a8.065 8.065 0 0 1 .08-1.2h9.84a8.065 8.065 0 0 1 .08 1.2z"/></g><path d="m22.808 18.778a12.93 12.93 0 0 0 -3.808 9.222 1 1 0 0 0 1 1h6v1a1 1 0 0 0 1 1h1.612l-.561 1.684a1 1 0 0 0 .949 1.316h6a1 1 0 0 0 .949-1.316l-.561-1.684h1.612a1 1 0 0 0 1-1v-1h6a1 1 0 0 0 1-1v-.481a12.985 12.985 0 0 0 -4.54-9.87l-2.46-2.109v-2.335a10.937 10.937 0 0 0 -2.049-6.394l-3.137-4.392a1.037 1.037 0 0 0 -1.628 0l-3.137 4.392a10.937 10.937 0 0 0 -2.049 6.394v2.381zm-1.766 8.222a10.925 10.925 0 0 1 3.18-6.808l1.778-1.778v8.586zm14.958-13.795v11.795h-8v-11.795c0-.069.014-.136.016-.205h7.968c.002.069.016.136.016.205zm-2.387 18.795h-3.226l.334-1h2.558zm2.387-3h-8v-2h8zm3.159-9.833a10.989 10.989 0 0 1 3.829 7.833h-4.988v-8.826zm-7.159-14.446 2.323 3.252a8.941 8.941 0 0 1 1.377 3.027h-7.4a8.941 8.941 0 0 1 1.378-3.027z" fill="#006df0"/><path d="m32 21a3 3 0 1 0 -3-3 3 3 0 0 0 3 3zm0-4a1 1 0 1 1 -1 1 1 1 0 0 1 1-1z" fill="#006df0"/><path d="m59 15h-18v2h18a1 1 0 0 1 1 1v16.356a12.9 12.9 0 0 0 -5.914 3.2 8.974 8.974 0 0 0 -10.892 3.964 4.86 4.86 0 0 0 -2.194-.52 5.009 5.009 0 0 0 -4.9 4h-9.1a6.006 6.006 0 0 0 -6-6 5.838 5.838 0 0 0 -1.081.1 5 5 0 0 0 -8.279-2.8 12.828 12.828 0 0 0 -7.64-3.255v-15.045a1 1 0 0 1 1-1h18v-2h-18a3 3 0 0 0 -3 3v32a3 3 0 0 0 3 3h22v3h-4a1 1 0 0 0 -1 1v3h-2v2h24v-2h-2v-3a1 1 0 0 0 -1-1h-4v-3h22a3 3 0 0 0 3-3v-32a3 3 0 0 0 -3-3zm-18 28a2.968 2.968 0 0 1 1.939.739 1 1 0 0 0 1.576-.379 6.981 6.981 0 0 1 9.39-3.72 1 1 0 0 0 1.137-.219 10.971 10.971 0 0 1 4.958-2.994v8.573h-21.816a3 3 0 0 1 2.816-2zm-30.028-4.564a.977.977 0 0 0 .8.308 1 1 0 0 0 .745-.433 3 3 0 0 1 5.483 1.689 1.369 1.369 0 0 1 -.019.182l-.02.153a1 1 0 0 0 1.4 1.023 3.984 3.984 0 0 1 5.639 3.642h-21v-9.95a10.9 10.9 0 0 1 6.972 3.386zm29.028 21.564h-16v-2h16zm-5-4h-6v-3h6zm24-5h-54a1 1 0 0 1 -1-1v-3h56v3a1 1 0 0 1 -1 1z" fill="#006df0"/><path d="m29 38c0 1.278 1.522 3.621 2.177 4.568a1 1 0 0 0 1.646 0c.655-.947 2.177-3.29 2.177-4.568a3 3 0 0 0 -6 0zm4 0a7.457 7.457 0 0 1 -1 2.147 7.443 7.443 0 0 1 -1-2.147 1 1 0 0 1 2 0z" fill="#006df0"/><path d="m39 30h2v4h-2z" fill="#006df0"/><path d="m42 30h2v2h-2z" fill="#006df0"/><path d="m23 30h2v4h-2z" fill="#006df0"/><path d="m20 30h2v2h-2z" fill="#006df0"/></svg>