<svg height="512" viewBox="0 0 60 53" width="512" xmlns="http://www.w3.org/2000/svg"><g id="Page-1" fill="none" fill-rule="evenodd"><g id="004---Messages" fill-rule="nonzero"><g id="color_copy" transform="translate(1 1)"><path id="Shape" d="m44 8v10h-14c-3.3137085 0-6 2.6862915-6 6v10h-2.71c-.1920435-.0025385-.3803376.0532523-.54.16l-10.75 6.84v-6c0-.5522847-.44771525-1-1-1h-1c-4.418278 0-8-3.581722-8-8v-18c0-4.418278 3.581722-8 8-8h28c4.418278 0 8 3.581722 8 8z" fill="#cad9fc"/><path id="Shape" d="m21 24v10h-2.71c-.1920435-.0025385-.3803376.0532523-.54.16l-7.75 4.931v1.909l10.75-6.84c.1596624-.1067477.3479565-.1625385.54-.16h2.71v-10c0-3.3137085 2.6862915-6 6-6h-3c-3.3137085 0-6 2.6862915-6 6z" fill="#a4c2f7"/><path id="Shape" d="m36 0h-3c4.418278 0 8 3.581722 8 8v10h3v-10c0-4.418278-3.581722-8-8-8z" fill="#a4c2f7"/><path id="Shape" d="m58 24v14c0 3.3137085-2.6862915 6-6 6h-1c-.5522847 0-1 .4477153-1 1v6l-11.77-6.86c-.1507665-.0914237-.3236799-.1398394-.5-.14h-7.73c-3.3137085 0-6-2.6862915-6-6v-14c0-3.3137085 2.6862915-6 6-6h22c3.3137085 0 6 2.6862915 6 6z" fill="#e8edfc"/><path id="Shape" d="m52 18h-3c3.3137085 0 6 2.6862915 6 6v14c0 3.3137085-2.6862915 6-6 6h-1c-.5522847 0-1 .4477153-1 1v4.251l3 1.749v-6c0-.5522847.4477153-1 1-1h1c3.3137085 0 6-2.6862915 6-6v-14c0-3.3137085-2.6862915-6-6-6z" fill="#cad9fc"/></g><g id="color" fill="#fff" transform="translate(1 1)"><path id="Shape" d="m8 34h1c.55228475 0 1 .4477153 1 1v6l3-1.909v-4.091c0-.5522847-.4477153-1-1-1h-1c-4.418278 0-8-3.581722-8-8v-18c0-4.418278 3.581722-8 8-8h-3c-4.418278 0-8 3.581722-8 8v18c0 4.418278 3.581722 8 8 8z"/></g><g id="outline"><path id="Rectangle-path" d="m0 19h2v8h-2z" fill="#fff"/><g fill="#428dff"><path id="Shape" d="m1.02 24c-.55228475.0027614-1.00223858-.4427153-1.005-.995s.44271525-1.0022386.995-1.005h.01c.55228475 0 1 .4477153 1 1s-.44771525 1-1 1z"/><path id="Shape" d="m53 18h-7v-9c-.006061-4.96805005-4.0319499-8.99393904-9-9h-28c-4.96805005.00606096-8.99393904 4.03194995-9 9v10c0 .5522847.44771525 1 1 1s1-.4477153 1-1v-10c.00440864-3.86416566 3.13583434-6.99559136 7-7h28c3.8641657.00440864 6.9955914 3.13583434 7 7v9h-13c-3.8641657.0044086-6.9955914 3.1358343-7 7v9h-1.71c-.3825458-.0049066-.7577497.1051811-1.077.316l-9.213 5.863v-4.179c0-1.1045695-.8954305-2-2-2h-1c-3.86416566-.0044086-6.99559136-3.1358343-7-7 0-.5522847-.44771525-1-1-1s-1 .4477153-1 1c.00606096 4.9680501 4.03194995 8.993939 9 9h1v6c-.00015254.3650826.1986625.7012343.5186724.8769586.3200098.1757244.7103504.1630908 1.0183276-.0329586l10.753-6.844h1.71v3c.0044086 3.8641657 3.1358343 6.9955914 7 7h7.729l11.771 6.864c.3090879.178453.6898553.1786463.9991243.0005074.3092689-.1781389.5001532-.5076037.5008757-.8645074v-6h1c3.8641657-.0044086 6.9955914-3.1358343 7-7v-14c-.0044086-3.8641657-3.1358343-6.9955914-7-7zm5 21c-.0033061 2.7600532-2.2399468 4.9966939-5 5h-1c-1.1045695 0-2 .8954305-2 2v4.259l-10.262-5.986c-.306186-.1788356-.6544128-.2730536-1.009-.273h-7.729c-2.7600532-.0033061-4.9966939-2.2399468-5-5v-14c.0033061-2.7600532 2.2399468-4.9966939 5-5h22c2.7600532.0033061 4.9966939 2.2399468 5 5z"/><path id="Shape" d="m30 27h2c.5522847 0 1-.4477153 1-1s-.4477153-1-1-1h-2c-.5522847 0-1 .4477153-1 1s.4477153 1 1 1z"/><path id="Shape" d="m53 25h-16c-.5522847 0-1 .4477153-1 1s.4477153 1 1 1h16c.5522847 0 1-.4477153 1-1s-.4477153-1-1-1z"/><path id="Shape" d="m32 35h-2c-.5522847 0-1 .4477153-1 1s.4477153 1 1 1h2c.5522847 0 1-.4477153 1-1s-.4477153-1-1-1z"/><path id="Shape" d="m53 35h-16c-.5522847 0-1 .4477153-1 1s.4477153 1 1 1h16c.5522847 0 1-.4477153 1-1s-.4477153-1-1-1z"/><path id="Shape" d="m53 30h-2c-.5522847 0-1 .4477153-1 1s.4477153 1 1 1h2c.5522847 0 1-.4477153 1-1s-.4477153-1-1-1z"/><path id="Shape" d="m30 32h16c.5522847 0 1-.4477153 1-1s-.4477153-1-1-1h-16c-.5522847 0-1 .4477153-1 1s.4477153 1 1 1z"/><path id="Shape" d="m6 9h2c.55228475 0 1-.44771525 1-1s-.44771525-1-1-1h-2c-.55228475 0-1 .44771525-1 1s.44771525 1 1 1z"/><path id="Shape" d="m40 7h-27c-.5522847 0-1 .44771525-1 1s.4477153 1 1 1h27c.5522847 0 1-.44771525 1-1s-.4477153-1-1-1z"/><path id="Shape" d="m6 19h2c.55228475 0 1-.4477153 1-1s-.44771525-1-1-1h-2c-.55228475 0-1 .4477153-1 1s.44771525 1 1 1z"/><path id="Shape" d="m22 17h-9c-.5522847 0-1 .4477153-1 1s.4477153 1 1 1h9c.5522847 0 1-.4477153 1-1s-.4477153-1-1-1z"/><path id="Shape" d="m40 12h-13c-.5522847 0-1 .4477153-1 1s.4477153 1 1 1h13c.5522847 0 1-.4477153 1-1s-.4477153-1-1-1z"/><path id="Shape" d="m6 14h16c.5522847 0 1-.4477153 1-1s-.4477153-1-1-1h-16c-.55228475 0-1 .4477153-1 1s.44771525 1 1 1z"/></g></g></g></g></svg>