<?xml version="1.0" encoding="iso-8859-1"?>
<!-- Generator: Adobe Illustrator 19.0.0, SVG Export Plug-In . SVG Version: 6.00 Build 0)  -->
<svg version="1.1" id="Capa_1" xmlns="http://www.w3.org/2000/svg" xmlns:xlink="http://www.w3.org/1999/xlink" x="0px" y="0px"
	 viewBox="0 0 512.001 512.001" style="enable-background:new 0 0 512.001 512.001;" xml:space="preserve">
<g>
	<path style="fill:#FFFFFF;" d="M93.973,409.494c-23.564,0-42.667-19.103-42.667-42.667s19.103-42.667,42.667-42.667V409.494z"/>
	<ellipse style="fill:#D4E1F4;" cx="106.718" cy="366.831" rx="29.918" ry="42.667"/>
	<path style="fill:#FFFFFF;" d="M196.267,307.2c-23.564,0-42.667-19.103-42.667-42.667c0-23.564,19.103-42.667,42.667-42.667V307.2z
		"/>
	<ellipse style="fill:#D4E1F4;" cx="209.067" cy="264.534" rx="29.867" ry="42.667"/>
	<path style="fill:#A4C2F7;" d="M460.8,196.267c23.564,0,42.667,19.103,42.667,42.667S484.364,281.6,460.8,281.6V196.267z"/>
	<ellipse style="fill:#D4E1F4;" cx="448" cy="238.934" rx="29.867" ry="42.667"/>
	<path style="fill:#A4C2F7;" d="M307.2,332.8c23.564,0,42.667,19.103,42.667,42.667c0,23.564-19.103,42.667-42.667,42.667V332.8z"/>
	<ellipse style="fill:#D4E1F4;" cx="294.4" cy="375.467" rx="29.867" ry="42.667"/>
	<g>
		<path style="fill:#428DFF;" d="M25.6,512c-2.264,0.001-4.435-0.897-6.035-2.498c-1.601-1.601-2.499-3.772-2.498-6.035V8.534
			C17.067,3.821,20.887,0,25.6,0s8.533,3.821,8.533,8.533v494.933c0.001,2.264-0.897,4.435-2.498,6.035
			C30.035,511.103,27.864,512.002,25.6,512z"/>
		<path style="fill:#428DFF;" d="M503.467,494.934H8.533C3.821,494.934,0,491.113,0,486.4c0-4.713,3.821-8.533,8.533-8.533h494.933
			c4.713,0,8.533,3.821,8.533,8.533C512,491.113,508.18,494.934,503.467,494.934z"/>
		<path style="fill:#428DFF;" d="M76.8,247.467H59.733c-4.713,0-8.533-3.82-8.533-8.533s3.821-8.533,8.533-8.533H76.8
			c4.713,0,8.533,3.821,8.533,8.533S81.513,247.467,76.8,247.467z"/>
		<path style="fill:#428DFF;" d="M76.8,213.334H59.733c-4.713,0-8.533-3.821-8.533-8.533c0-4.713,3.821-8.533,8.533-8.533H76.8
			c4.713,0,8.533,3.821,8.533,8.533C85.333,209.513,81.513,213.334,76.8,213.334z"/>
		<path style="fill:#428DFF;" d="M76.8,179.2H59.733c-4.713,0-8.533-3.821-8.533-8.533c0-4.713,3.821-8.533,8.533-8.533H76.8
			c4.713,0,8.533,3.821,8.533,8.533C85.333,175.38,81.513,179.2,76.8,179.2z"/>
		<path style="fill:#428DFF;" d="M76.8,145.067H59.733c-4.713,0-8.533-3.821-8.533-8.533S55.021,128,59.733,128H76.8
			c4.713,0,8.533,3.821,8.533,8.533S81.513,145.067,76.8,145.067z"/>
		<path style="fill:#428DFF;" d="M76.8,110.934H59.733c-4.713,0-8.533-3.821-8.533-8.533c0-4.713,3.821-8.533,8.533-8.533H76.8
			c4.713,0,8.533,3.821,8.533,8.533C85.333,107.113,81.513,110.934,76.8,110.934z"/>
		<path style="fill:#428DFF;" d="M76.8,76.8H59.733c-4.713,0-8.533-3.82-8.533-8.533c0-4.713,3.821-8.533,8.533-8.533H76.8
			c4.713,0,8.533,3.821,8.533,8.533C85.333,72.98,81.513,76.8,76.8,76.8z"/>
		<path style="fill:#428DFF;" d="M76.8,42.667H59.733c-4.713,0-8.533-3.821-8.533-8.533s3.821-8.533,8.533-8.533H76.8
			c4.713,0,8.533,3.821,8.533,8.533S81.513,42.667,76.8,42.667z"/>
		<path style="fill:#428DFF;" d="M93.975,418.025c-20.708,0-39.378-12.474-47.303-31.607s-3.544-41.154,11.099-55.797
			s36.665-19.024,55.797-11.099c19.132,7.925,31.607,26.594,31.607,47.303C145.144,395.09,122.239,417.995,93.975,418.025z
			 M93.975,332.692c-18.851,0-34.133,15.282-34.133,34.133c0,18.851,15.282,34.133,34.133,34.133s34.133-15.282,34.133-34.133
			C128.09,347.982,112.819,332.711,93.975,332.692L93.975,332.692z"/>
		<path style="fill:#428DFF;" d="M196.267,315.734c-28.277,0-51.2-22.923-51.2-51.2c0-28.277,22.923-51.2,51.2-51.2
			s51.2,22.923,51.2,51.2C247.436,292.798,224.531,315.703,196.267,315.734L196.267,315.734z M196.267,230.4
			c-18.851,0-34.133,15.282-34.133,34.133c0,18.851,15.282,34.133,34.133,34.133s34.133-15.282,34.133-34.133
			C230.381,245.69,215.11,230.419,196.267,230.4z"/>
		<path style="fill:#428DFF;" d="M460.8,290.134c-15.366-0.02-29.913-6.931-39.635-18.831c-9.722-11.9-13.593-27.533-10.548-42.594
			c0.934-4.621,5.438-7.609,10.058-6.675c4.621,0.934,7.609,5.438,6.675,10.058c-2.997,14.738,4.021,29.697,17.269,36.815
			c13.248,7.118,29.596,4.71,40.23-5.924c10.634-10.634,13.042-26.982,5.924-40.23c-7.117-13.248-22.077-20.266-36.815-17.269
			c-2.989,0.604-6.074-0.432-8.092-2.718c-2.018-2.286-2.663-5.476-1.692-8.367c0.971-2.891,3.411-5.044,6.4-5.648
			c19.132-3.896,38.814,3.426,50.747,18.879c11.933,15.453,14.041,36.347,5.433,53.872S480.324,290.131,460.8,290.134L460.8,290.134
			z"/>
		<circle style="fill:#428DFF;" cx="426.667" cy="204.8" r="8.533"/>
		<path style="fill:#428DFF;" d="M307.2,426.667c-20.708,0-39.378-12.474-47.303-31.607c-7.925-19.132-3.544-41.154,11.099-55.797
			c14.643-14.643,36.665-19.024,55.797-11.099c19.132,7.925,31.607,26.594,31.607,47.303
			C358.369,403.731,335.464,426.636,307.2,426.667L307.2,426.667z M307.2,341.334c-18.851,0-34.133,15.282-34.133,34.133
			c0,18.851,15.282,34.133,34.133,34.133c18.851,0,34.133-15.282,34.133-34.133C341.315,356.624,326.044,341.353,307.2,341.334
			L307.2,341.334z"/>
		<path style="fill:#428DFF;" d="M119.467,341.334c-3.451-0.001-6.562-2.08-7.882-5.268c-1.32-3.188-0.591-6.858,1.849-9.298
			l42.775-42.775c2.154-2.162,5.299-3.008,8.247-2.22c2.948,0.788,5.251,3.091,6.039,6.039c0.788,2.948-0.058,6.093-2.22,8.247
			L125.5,338.833C123.902,340.436,121.73,341.336,119.467,341.334z"/>
		<path style="fill:#428DFF;" d="M281.708,349.975c-2.264,0.003-4.435-0.897-6.033-2.5l-51.417-51.417
			c-2.162-2.154-3.008-5.299-2.22-8.247c0.788-2.948,3.091-5.251,6.039-6.039c2.948-0.788,6.093,0.058,8.247,2.22l51.417,51.417
			c2.44,2.44,3.169,6.11,1.849,9.298S285.16,349.974,281.708,349.975L281.708,349.975z"/>
		<path style="fill:#428DFF;" d="M341.333,358.4c-3.451-0.001-6.562-2.08-7.882-5.268s-0.591-6.858,1.849-9.298l85.333-85.333
			c2.149-2.188,5.307-3.055,8.271-2.27s5.28,3.1,6.065,6.065c0.785,2.965-0.082,6.122-2.27,8.271L347.366,355.9
			C345.768,357.503,343.597,358.403,341.333,358.4L341.333,358.4z"/>
	</g>
</g>
<g>
</g>
<g>
</g>
<g>
</g>
<g>
</g>
<g>
</g>
<g>
</g>
<g>
</g>
<g>
</g>
<g>
</g>
<g>
</g>
<g>
</g>
<g>
</g>
<g>
</g>
<g>
</g>
<g>
</g>
</svg>
