<?xml version="1.0" encoding="iso-8859-1"?>
<!-- Generator: Adobe Illustrator 19.0.0, SVG Export Plug-In . SVG Version: 6.00 Build 0)  -->
<svg version="1.1" id="Capa_1" xmlns="http://www.w3.org/2000/svg" xmlns:xlink="http://www.w3.org/1999/xlink" x="0px" y="0px"
	 viewBox="0 0 512 512" style="enable-background:new 0 0 512 512;" xml:space="preserve">
<g>
	<g transform="translate(0 1)">
		<polygon style="fill:#E3E7F2;" points="309.47,425.667 256,425.667 202.53,425.667 179.2,502.467 256,502.467 332.8,502.467 		"/>
		<path style="fill:#7FACFA;" d="M503.467,365.933v51.2c-0.028,9.414-7.653,17.039-17.067,17.067H25.6
			c-9.414-0.028-17.039-7.652-17.067-17.067v-51.2H503.467z"/>
		
			<linearGradient id="SVGID_1_" gradientUnits="userSpaceOnUse" x1="-48.6767" y1="651.4684" x2="-48.1144" y2="647.6024" gradientTransform="matrix(469.3423 0 0 -68.2667 22957.3008 44736.8008)">
			<stop  offset="0" style="stop-color:#D4E1F4"/>
			<stop  offset="0.1717" style="stop-color:#D4E1F4"/>
			<stop  offset="0.2" style="stop-color:#D4E1F4"/>
			<stop  offset="0.2001" style="stop-color:#DAE4F4"/>
			<stop  offset="0.2007" style="stop-color:#EBEBF4"/>
			<stop  offset="0.2014" style="stop-color:#F6F1F4"/>
			<stop  offset="0.2023" style="stop-color:#FDF4F4"/>
			<stop  offset="0.205" style="stop-color:#FFF5F4"/>
			<stop  offset="0.2522" style="stop-color:#FFF5F4"/>
			<stop  offset="0.26" style="stop-color:#FFF5F4"/>
			<stop  offset="0.26" style="stop-color:#D4E1F4"/>
			<stop  offset="0.3974" style="stop-color:#D4E1F4"/>
			<stop  offset="0.42" style="stop-color:#D4E1F4"/>
			<stop  offset="0.4201" style="stop-color:#DAE4F4"/>
			<stop  offset="0.4207" style="stop-color:#EBEBF4"/>
			<stop  offset="0.4214" style="stop-color:#F6F1F4"/>
			<stop  offset="0.4223" style="stop-color:#FDF4F4"/>
			<stop  offset="0.425" style="stop-color:#FFF5F4"/>
			<stop  offset="0.4894" style="stop-color:#FFF5F4"/>
			<stop  offset="0.5" style="stop-color:#FFF5F4"/>
			<stop  offset="0.5" style="stop-color:#F9F2F4"/>
			<stop  offset="0.5001" style="stop-color:#E8EBF4"/>
			<stop  offset="0.5003" style="stop-color:#DDE5F4"/>
			<stop  offset="0.5005" style="stop-color:#D6E2F4"/>
			<stop  offset="0.501" style="stop-color:#D4E1F4"/>
			<stop  offset="0.7062" style="stop-color:#D4E1F4"/>
			<stop  offset="0.74" style="stop-color:#D4E1F4"/>
			<stop  offset="0.741" style="stop-color:#FFF5F4"/>
			<stop  offset="0.8346" style="stop-color:#FFF5F4"/>
			<stop  offset="0.85" style="stop-color:#FFF5F4"/>
			<stop  offset="0.851" style="stop-color:#D4E1F4"/>
		</linearGradient>
		<path style="fill:url(#SVGID_1_);" d="M477.871,365.933l-0.004,51.2c0.21,9.169-7.017,16.79-16.184,17.067H24.717
			c-9.167-0.277-16.394-7.898-16.184-17.067l-0.004-51.2H477.871z"/>
		<path style="fill:#7FACFA;" d="M503.467,24.6v341.333H8.533V24.6C8.561,15.186,16.186,7.561,25.6,7.533h460.8
			C495.814,7.561,503.439,15.186,503.467,24.6z"/>
		<path style="fill:#E3E7F2;" d="M477.867,24.6l0.004,341.333H8.529L8.533,24.6C8.323,15.431,15.55,7.81,24.717,7.533h436.966
			C470.85,7.81,478.077,15.431,477.867,24.6z"/>
		<path style="fill:#D4E1F4;" d="M153.6,92.867V331.8H51.2c-4.713,0-8.533-3.82-8.533-8.533v-230.4H153.6z"/>
		<path style="fill:#7FACFA;" d="M469.333,195.267v128c-0.014,4.707-3.826,8.519-8.533,8.533H153.6V195.267H469.333z"/>
		<path style="fill:#E3E7F2;" d="M443.733,195.267v128c0.169,4.514-3.329,8.321-7.841,8.533H153.6V195.267H443.733z"/>
		<rect x="153.6" y="92.867" style="fill:#7FACFA;" width="315.733" height="102.4"/>
		<g>
			<rect x="153.6" y="92.867" style="fill:#E3E7F2;" width="290.133" height="102.4"/>
			<path style="fill:#E3E7F2;" d="M93.867,41.667v51.2h-51.2V50.2c0-4.713,3.821-8.533,8.533-8.533H93.867z"/>
		</g>
		<path style="fill:#7FACFA;" d="M469.333,50.2v42.667H93.867v-51.2H460.8C465.513,41.667,469.333,45.487,469.333,50.2z"/>
		<g>
			<path style="fill:#E3E7F2;" d="M443.733,50.2v42.667H93.867v-51.2h341.915C440.331,41.833,443.888,45.65,443.733,50.2z"/>
			<circle style="fill:#E3E7F2;" cx="384" cy="263.533" r="42.667"/>
			<path style="fill:#E3E7F2;" d="M418.133,237.933L384,263.533v-42.667C397.427,220.879,410.067,227.2,418.133,237.933z"/>
		</g>
		<g>
			<path style="fill:#FFFFFF;" d="M50.347,434.2h-25.6c-9.182-0.253-16.431-7.884-16.213-17.067V24.6
				C8.315,15.417,15.564,7.786,24.747,7.533h25.515C41.109,7.824,33.906,15.446,34.133,24.6v392.533
				C33.916,426.316,41.164,433.947,50.347,434.2z"/>
			<polygon style="fill:#FFFFFF;" points="225.536,434.2 204.8,502.467 179.2,502.467 199.936,434.2 			"/>
		</g>
	</g>
	<g>
		<polygon style="fill:#FFFFFF;" points="17.067,25.6 17.067,136.533 17.067,375.467 0,375.467 0,136.533 0,25.6 		"/>
		<g>
			<path style="fill:#428DFF;" d="M8.533,102.4c2.259-0.034,4.422-0.918,6.059-2.475c3.3-3.365,3.3-8.752,0-12.117l-1.279-1.025
				c-0.476-0.324-0.993-0.583-1.538-0.771c-0.484-0.246-1.003-0.417-1.538-0.509c-0.563-0.096-1.133-0.153-1.704-0.171
				c-2.259,0.031-4.423,0.915-6.059,2.475c-3.222,3.397-3.222,8.721,0,12.117c0.815,0.771,1.77,1.379,2.813,1.792
				C6.314,102.155,7.417,102.387,8.533,102.4z"/>
			<path style="fill:#428DFF;" d="M486.4,0H25.6C11.468,0.015,0.015,11.468,0,25.6v34.133c0,4.713,3.821,8.533,8.533,8.533
				s8.533-3.821,8.533-8.533V25.6c0.005-4.711,3.822-8.529,8.533-8.533h460.8c4.711,0.005,8.529,3.822,8.533,8.533v332.8H17.067V128
				c0-4.713-3.821-8.533-8.533-8.533S0,123.287,0,128v290.133c0.015,14.132,11.468,25.585,25.6,25.6h164.999l-17.5,51.2h-10.965
				c-4.713,0-8.533,3.821-8.533,8.533c0,4.713,3.821,8.533,8.533,8.533h187.733c4.713,0,8.533-3.82,8.533-8.533
				c0-4.713-3.821-8.533-8.533-8.533h-10.965l-17.5-51.2H486.4c14.132-0.015,25.585-11.468,25.6-25.6V25.6
				C511.985,11.468,500.532,0.015,486.4,0z M320.867,494.933H191.133l17.5-51.2h94.733L320.867,494.933z M486.4,426.667H25.6
				c-4.711-0.005-8.529-3.822-8.533-8.533v-42.667h477.867v42.667C494.929,422.844,491.111,426.662,486.4,426.667z"/>
			<path style="fill:#428DFF;" d="M469.333,341.333c2.263,0.001,4.434-0.898,6.035-2.499c1.6-1.6,2.499-3.771,2.499-6.035V42.667
				c0.001-2.263-0.898-4.434-2.499-6.035c-1.6-1.6-3.771-2.499-6.035-2.499H42.667c-2.263-0.001-4.434,0.898-6.035,2.499
				c-1.6,1.6-2.499,3.771-2.499,6.035V332.8c-0.001,2.263,0.898,4.434,2.499,6.035c1.6,1.6,3.771,2.499,6.035,2.499H469.333z
				 M51.2,102.4h93.867v221.867H51.2V102.4z M460.8,102.4v26.722l-12.333-8.222c-2.867-1.908-6.6-1.908-9.467,0l-25.6,17.067
				c-0.467,0.312-0.903,0.669-1.3,1.067l-12.717,12.716l-28.633-14.317c-2.028-1.001-4.368-1.167-6.517-0.463l-22.242,7.417
				l-13.908-6.954c-2.028-1.002-4.368-1.168-6.517-0.463l-25.6,8.533c-0.718,0.242-1.402,0.577-2.033,0.996l-22.125,14.75
				l-19.734-6.575l-15.642-15.642c-3.002-3.002-7.754-3.339-11.15-0.792l-29.916,22.433l-12.35-6.175
				c-3.285-1.643-7.253-0.998-9.85,1.6l-11.033,11.033V102.4H460.8z M460.8,187.733H165.667l15.217-15.217l11.567,5.783
				c2.889,1.453,6.352,1.14,8.933-0.808l28.217-21.158l11.834,11.833c0.935,0.938,2.077,1.644,3.333,2.063l25.6,8.533
				c2.498,0.837,5.243,0.469,7.433-0.996l24.65-16.433l21.158-7.054l13.908,6.954c2.025,1.013,4.369,1.179,6.517,0.463l22.242-7.417
				l30.975,15.488c3.287,1.633,7.249,0.989,9.85-1.6l16.467-16.467l20.166-13.446l17.067,11.379V187.733z M162.133,324.267V204.8
				H460.8v119.467H162.133z M460.8,85.333H102.4V51.2h358.4V85.333z M85.333,51.2v34.133H51.2V51.2H85.333z"/>
			<path style="fill:#428DFF;" d="M128,76.8h34.133c4.713,0,8.533-3.82,8.533-8.533c0-4.713-3.821-8.533-8.533-8.533H128
				c-4.713,0-8.533,3.821-8.533,8.533C119.467,72.98,123.287,76.8,128,76.8z"/>
			<path style="fill:#428DFF;" d="M307.2,76.8h34.133c4.713,0,8.533-3.82,8.533-8.533c0-4.713-3.821-8.533-8.533-8.533H307.2
				c-4.713,0-8.533,3.821-8.533,8.533C298.667,72.98,302.487,76.8,307.2,76.8z"/>
			<path style="fill:#428DFF;" d="M196.267,76.8h76.8c4.713,0,8.533-3.82,8.533-8.533c0-4.713-3.82-8.533-8.533-8.533h-76.8
				c-4.713,0-8.533,3.821-8.533,8.533C187.733,72.98,191.554,76.8,196.267,76.8z"/>
			<path style="fill:#428DFF;" d="M71.508,120.146c-2.078-0.85-4.406-0.85-6.483,0c-3.25,1.233-5.37,4.379-5.292,7.854
				c0.014,1.115,0.246,2.216,0.683,3.242c0.433,1.034,1.039,1.987,1.792,2.817c3.347,3.339,8.766,3.335,12.109-0.008
				c3.343-3.343,3.346-8.762,0.007-12.109C73.495,121.188,72.542,120.581,71.508,120.146z"/>
			<path style="fill:#428DFF;" d="M93.867,136.533h25.6c4.713,0,8.533-3.821,8.533-8.533c0-4.713-3.821-8.533-8.533-8.533h-25.6
				c-4.713,0-8.533,3.821-8.533,8.533C85.333,132.713,89.154,136.533,93.867,136.533z"/>
			<path style="fill:#428DFF;" d="M71.508,154.279c-2.078-0.85-4.406-0.85-6.483,0c-1.045,0.413-2.001,1.022-2.817,1.796
				c-1.561,1.634-2.445,3.799-2.475,6.059c0.014,1.115,0.246,2.216,0.683,3.242c0.393,1.055,1.003,2.014,1.792,2.817
				c3.347,3.339,8.766,3.335,12.109-0.008s3.346-8.762,0.007-12.109C73.495,155.321,72.542,154.714,71.508,154.279z"/>
			<path style="fill:#428DFF;" d="M119.467,153.6h-25.6c-4.713,0-8.533,3.821-8.533,8.533c0,4.713,3.821,8.533,8.533,8.533h25.6
				c4.713,0,8.533-3.821,8.533-8.533C128,157.421,124.179,153.6,119.467,153.6z"/>
			<path style="fill:#428DFF;" d="M62.208,190.208c-0.753,0.829-1.359,1.78-1.792,2.813c-0.438,1.027-0.67,2.13-0.683,3.246
				c-0.081,3.475,2.04,6.622,5.292,7.85c2.065,0.911,4.418,0.911,6.483,0c1.033-0.435,1.985-1.041,2.817-1.791
				c3.346-3.346,3.346-8.771,0-12.117C70.979,186.862,65.554,186.862,62.208,190.208z"/>
			<path style="fill:#428DFF;" d="M119.467,187.733h-25.6c-4.713,0-8.533,3.821-8.533,8.533s3.821,8.533,8.533,8.533h25.6
				c4.713,0,8.533-3.821,8.533-8.533S124.179,187.733,119.467,187.733z"/>
			<path style="fill:#428DFF;" d="M76.117,227.154c-0.189-0.542-0.446-1.057-0.767-1.533c-0.341-0.429-0.683-0.854-1.025-1.279
				c-2.441-2.461-6.129-3.201-9.331-1.872c-3.202,1.329-5.281,4.463-5.261,7.93c0.014,1.115,0.246,2.216,0.683,3.242
				c0.413,1.044,1.021,2,1.792,2.817c2.441,2.461,6.129,3.201,9.33,1.871c3.202-1.329,5.281-4.463,5.261-7.93
				c-0.013-0.544-0.071-1.086-0.175-1.621C76.549,228.213,76.377,227.663,76.117,227.154z"/>
			<path style="fill:#428DFF;" d="M119.467,221.867h-25.6c-4.713,0-8.533,3.82-8.533,8.533s3.821,8.533,8.533,8.533h25.6
				c4.713,0,8.533-3.821,8.533-8.533S124.179,221.867,119.467,221.867z"/>
			<path style="fill:#428DFF;" d="M62.208,258.475c-0.772,0.814-1.38,1.769-1.792,2.813c-0.438,1.027-0.67,2.13-0.683,3.246
				c0.014,3.45,2.096,6.556,5.282,7.879c3.187,1.323,6.856,0.606,9.31-1.82c0.341-0.429,0.683-0.854,1.025-1.279
				c0.321-0.477,0.579-0.994,0.767-1.538c0.26-0.508,0.432-1.056,0.508-1.621c0.103-0.535,0.162-1.077,0.175-1.621
				c0.02-3.467-2.059-6.601-5.261-7.931C68.337,255.273,64.649,256.013,62.208,258.475z"/>
			<path style="fill:#428DFF;" d="M119.467,256h-25.6c-4.713,0-8.533,3.821-8.533,8.533s3.821,8.533,8.533,8.533h25.6
				c4.713,0,8.533-3.82,8.533-8.533S124.179,256,119.467,256z"/>
			<path style="fill:#428DFF;" d="M424.958,233.813c-0.08-0.107-0.203-0.154-0.287-0.256c-17.22-22.666-49.528-27.138-72.258-10.001
				c-22.729,17.137-27.32,49.428-10.266,72.221c17.053,22.792,49.328,27.501,72.182,10.532
				c22.855-16.969,27.682-49.226,10.797-72.143C425.051,234.054,425.04,233.921,424.958,233.813z M392.533,231.612
				c4.619,1.207,8.931,3.378,12.652,6.369l-12.652,9.486V231.612z M384,298.667c-17.176,0.036-31.692-12.723-33.86-29.761
				c-2.168-17.039,8.689-33.026,25.327-37.293v32.922c-0.002,3.232,1.824,6.187,4.715,7.633c2.891,1.445,6.35,1.133,8.935-0.808
				l26.419-19.814c4.363,10.524,3.178,22.532-3.158,32C406.041,293.012,395.392,298.687,384,298.667z"/>
			<path style="fill:#428DFF;" d="M290.133,273.067c2.263,0.001,4.434-0.898,6.035-2.499c1.6-1.6,2.499-3.771,2.499-6.035v-42.667
				c0-4.713-3.821-8.533-8.533-8.533c-4.713,0-8.533,3.821-8.533,8.533v42.667c-0.001,2.263,0.898,4.434,2.499,6.035
				C285.699,272.168,287.87,273.067,290.133,273.067z"/>
			<path style="fill:#428DFF;" d="M179.191,273.067c2.839,0.004,5.495-1.405,7.083-3.758l2.692-3.992l8.192,6.075
				c2.076,1.537,4.737,2.051,7.237,1.399c2.5-0.652,4.57-2.402,5.63-4.757l10.317-22.933l14.3,14.125
				c1.807,1.784,4.315,2.671,6.842,2.421c2.527-0.25,4.812-1.613,6.233-3.717l15.358-22.754c1.706-2.528,1.934-5.773,0.598-8.515
				s-4.033-4.561-7.075-4.775c-3.042-0.214-5.967,1.212-7.673,3.74l-9.6,14.234L223.6,224.329c-1.99-1.964-4.815-2.83-7.564-2.317
				c-2.749,0.513-5.072,2.339-6.22,4.888l-11.008,24.471l-6.842-5.075c-1.872-1.386-4.228-1.948-6.524-1.554
				c-2.296,0.393-4.331,1.707-5.634,3.638l-7.683,11.379c-1.763,2.615-1.94,5.989-0.461,8.775
				C173.143,271.319,176.038,273.062,179.191,273.067z"/>
			<path style="fill:#428DFF;" d="M298.667,290.133H179.2c-4.713,0-8.533,3.82-8.533,8.533s3.821,8.533,8.533,8.533h119.467
				c4.713,0,8.533-3.82,8.533-8.533S303.38,290.133,298.667,290.133z"/>
		</g>
	</g>
</g>
<g>
</g>
<g>
</g>
<g>
</g>
<g>
</g>
<g>
</g>
<g>
</g>
<g>
</g>
<g>
</g>
<g>
</g>
<g>
</g>
<g>
</g>
<g>
</g>
<g>
</g>
<g>
</g>
<g>
</g>
</svg>
